<svg xmlns="http://www.w3.org/2000/svg" viewBox="0 0 200 60" width="200" height="60">
    <!-- Background rectangle -->
    <rect width="200" height="60" fill="#FF0000"/>
    
    <!-- White text SENAI -->
    <text x="100" y="42" 
          font-family="Arial, sans-serif" 
          font-size="32" 
          font-weight="bold" 
          text-anchor="middle" 
          fill="white">SENAI</text>
    
    <!-- White decorative lines -->
    <rect x="10" y="10" width="30" height="3" fill="white"/>
    <rect x="10" y="18" width="25" height="2" fill="white"/>
    <rect x="10" y="24" width="35" height="2" fill="white"/>
    <rect x="10" y="30" width="20" height="2" fill="white"/>
    <rect x="10" y="36" width="40" height="2" fill="white"/>
    <rect x="10" y="42" width="15" height="2" fill="white"/>
    <rect x="10" y="48" width="30" height="2" fill="white"/>
    
    <!-- Right side decorative lines -->
    <rect x="160" y="10" width="30" height="3" fill="white"/>
    <rect x="165" y="18" width="25" height="2" fill="white"/>
    <rect x="155" y="24" width="35" height="2" fill="white"/>
    <rect x="170" y="30" width="20" height="2" fill="white"/>
    <rect x="150" y="36" width="40" height="2" fill="white"/>
    <rect x="175" y="42" width="15" height="2" fill="white"/>
    <rect x="160" y="48" width="30" height="2" fill="white"/>
</svg>
